# xmcd CD database file
#
# Track frame offsets:
#	150
#	31179
#	51814
#	82196
#	113655
#	137148
#	173082
#	193603
#	216352
#	258614
#
# Disc length: 4060 seconds
#
# Revision: 0
# Processed by: cddbd v1.5.1PL0 Copyright (c) Steve Scherf et al.
# Submitted via: CDex 1.51
#
DISCID=8e0fda0a
DTITLE=Richard Drexler - My One And Only Love
DYEAR=2005
DGENRE=Jazz
TTITLE0=My One And Only Love
TTITLE1=My Foolish Heart
TTITLE2=Early In The Morning
TTITLE3=My Funny Valentine
TTITLE4=The Island
TTITLE5=Tones For Joans´s Bones
TTITLE6=On The Go
TTITLE7=I Got It Bad (And That Ain´t Good)
TTITLE8=Dolphin Dance
TTITLE9=Alice In The Wonderland
EXTD=YEAR: 2005
EXTT0=
EXTT1=
EXTT2=
EXTT3=
EXTT4=
EXTT5=
EXTT6=
EXTT7=
EXTT8=
EXTT9=
PLAYORDER=
